<?xml version="1.0" standalone="no"?>
<!DOCTYPE svg PUBLIC "-//W3C//DTD SVG 20010904//EN"
 "http://www.w3.org/TR/2001/REC-SVG-20010904/DTD/svg10.dtd">
<svg version="1.0" xmlns="http://www.w3.org/2000/svg"
 width="1250.000000pt" height="1615.000000pt" viewBox="0 0 1250.000000 1615.000000"
 preserveAspectRatio="xMidYMid meet">

<g transform="translate(0.000000,1615.000000) scale(0.100000,-0.100000)"
fill="#000000" stroke="none">
<path d="M6060 10579 c-29 -12 -76 -55 -93 -84 -9 -15 -13 -280 -17 -995 -4
-773 -8 -981 -18 -1005 -20 -45 -82 -104 -122 -115 -22 -6 -386 -10 -961 -10
-673 0 -935 -3 -960 -12 -53 -17 -87 -46 -112 -91 -20 -38 -22 -56 -22 -177 0
-121 2 -139 23 -177 12 -24 41 -55 64 -70 l42 -28 965 -5 c711 -4 971 -8 986
-17 31 -18 83 -75 97 -108 10 -24 14 -233 18 -1015 5 -910 6 -987 22 -1017 40
-72 101 -93 278 -93 176 0 230 18 276 93 18 31 19 65 24 1022 l5 990 24 42
c14 24 42 55 64 70 l40 28 961 5 c562 3 969 9 981 14 43 20 78 53 98 91 20 35
22 56 22 175 0 118 -3 140 -22 175 -20 38 -55 71 -98 91 -12 5 -419 11 -981
14 l-961 5 -40 28 c-22 15 -50 46 -64 70 l-24 42 -5 975 c-6 1089 0 1008 -77
1067 -36 28 -36 28 -212 30 -103 1 -186 -2 -201 -8z"/>
</g>
</svg>
